<?xml version="1.0" ?><svg style="enable-background:new 0 0 48 48;" version="1.1" viewBox="0 0 48 48" xml:space="preserve" xmlns="http://www.w3.org/2000/svg" xmlns:xlink="http://www.w3.org/1999/xlink"><g id="Layer_2"/><g id="Layer_1"><g><polygon points="34.47501,12.53998 34.47501,35.45001 29.37503,38.40002 13.52499,35.76001     13.52499,12.91998 18.32498,9.59998   " style="fill:#145CC6;"/><polygon points="34.47501,35.45001 29.37503,38.40002 13.52499,35.76001 18.32498,32.5   " style="fill:#084E87;"/><path d="M31.72501,20.01001c-0.14001-0.65002-0.34998-1.26001-0.63-1.82001    c-0.27002-0.53998-0.59998-1.03003-0.97998-1.46002c-0.37-0.40997-0.79004-0.76996-1.23999-1.03998    c-0.47003-0.29999-0.98999-0.5-1.52002-0.60999c-0.28998-0.06-0.59003-0.09003-0.89001-0.09003    c-0.39001,0-0.76996,0.04999-1.13,0.15002c-1.52997,0.38995-2.82996,1.59998-3.57996,3.25    C21.49503,18.94,21.30502,19.53998,21.18503,20.19c-0.04004,0.16998-0.07001,0.35999-0.08002,0.52997v0.01001L21.095,20.75    c-0.01001,0.04999-0.01001,0.09003-0.01001,0.14001c-0.02997,0.20996-0.03998,0.41998-0.03998,0.63995v0.01001    c-0.01001,0.06-0.01001,0.12-0.01001,0.17004c0,3.71997,2.42999,6.73999,5.42999,6.73999    c2.51001,0,4.60999-2.10999,5.23999-4.97003c0.02002-0.07001,0.03003-0.13,0.04004-0.20001    c0.02997-0.13995,0.04999-0.28998,0.07001-0.42999c0.00995-0.06,0.01996-0.13995,0.01996-0.20996    c0.03003-0.16003,0.04004-0.33002,0.04004-0.5c0.01996-0.09003,0.02997-0.19,0.01996-0.28003    C31.905,21.81,31.905,21.76001,31.905,21.71002C31.905,21.13,31.83499,20.54999,31.72501,20.01001z M26.42499,20.08942    c0.63369-0.02884,1.19587,0.41148,1.43002,1.03057c0.20918,0.52311,0.18326,1.14397-0.09003,1.64001    c-0.26996,0.48999-0.73999,0.81-1.29999,0.81c-0.70001,0-1.27997-0.56-1.45001-1.31    C24.98502,22.12,24.965,21.97998,24.965,21.83002c0-0.69489,0.3798-1.41308,1.05744-1.65902    C26.15817,20.12174,26.29313,20.09542,26.42499,20.08942z" style="fill:#D40000;"/><path d="M31.74503,23.27997c-0.01001,0.07001-0.02002,0.13-0.04004,0.20001    c-0.63,2.86005-2.72998,4.97003-5.23999,4.97003c-3,0-5.42999-3.02002-5.42999-6.73999c0-0.05005,0-0.11005,0.01001-0.17004    c0.96997,0.17004,3.12,0.55005,3.12,0.55005l0.23999,0.58997c0,0,0.71002,1.09998,0.75,1.10999    c0.04004,0.01001,0.98004,0.44,0.98004,0.44l1.13995-0.13995l0.95001-0.73004l0.39001-0.67999l2.84998,0.52002L31.74503,23.27997z    " style="fill:#F7F6F0;"/><polygon points="13.52499,12.91998 18.32498,9.59998 18.32498,32.5 13.52499,35.76001   " style="fill:#085CA0;"/><g><g><g><g><path d="M32.04593,21.86694c0.00977-0.05664,0.00977-0.10938,0.00977-0.15723        c0-0.55176-0.0625-1.13379-0.18457-1.73047v-0.00098c-0.14258-0.66602-0.35938-1.29004-0.64258-1.85547        c-0.27191-0.54486-0.60712-1.04388-0.99597-1.48541c-0.0014-0.00171-0.00061-0.00415-0.00208-0.0058        c-0.00104-0.00116-0.00275-0.00073-0.00378-0.00183c-0.00006-0.00006-0.00006-0.00006-0.00012-0.00012        c-0.39746-0.44043-0.82617-0.7998-1.27051-1.06543c-0.46875-0.2998-0.99707-0.51172-1.57031-0.63086        c-0.00696-0.00146-0.01428-0.00171-0.02124-0.00311c-0.00128-0.00006-0.00226-0.00043-0.0036-0.00049        c-0.68451-0.13885-1.42224-0.1134-2.06305,0.06512c-1.55566,0.39648-2.89648,1.61133-3.67871,3.33105        c-0.26465,0.56055-0.46094,1.17871-0.58105,1.83008c-0.04004,0.1709-0.06836,0.35254-0.08008,0.53223        c-0.00146,0.00323-0.00208,0.00641-0.00323,0.00964c-0.00006,0.00049-0.00061,0.00061-0.00067,0.0011        c-0.00006,0.00024,0.00018,0.00037,0.00012,0.00061c-0.00244,0.00696-0.00507,0.01392-0.00696,0.02087        c-0.00879,0.04688-0.01172,0.08594-0.01172,0.12012c0,0.00977,0.00098,0.01953,0.00098,0.02832        c-0.02637,0.18457-0.04004,0.38086-0.04004,0.59375c0,0.01465,0,0.02832,0,0.04297        c-0.01074,0.06738-0.01172,0.14746-0.01172,0.2041c0,3.79883,2.50391,6.89062,5.58008,6.89062        c2.51172,0,4.72656-2.09277,5.38574-5.08594c0.05176-0.21582,0.08301-0.43262,0.11328-0.64062        c0.00977-0.05957,0.01855-0.1377,0.01855-0.18848c0-0.00586,0-0.01172,0-0.0166        c0.02539-0.13672,0.04004-0.29004,0.04004-0.44434c0-0.01758,0-0.03516-0.00098-0.05273        c0.01855-0.08398,0.02734-0.16309,0.02734-0.23633C32.04886,21.91187,32.04788,21.88843,32.04593,21.86694z         M28.88052,21.65179c-0.00006-0.00452-0.00061-0.00684-0.00061-0.01239c0-0.02637,0-0.06055-0.00586-0.07715        c-0.01672-0.31989-0.09302-0.63397-0.21753-0.95813l2.38245-2.16064c0.21814,0.46979,0.39404,0.97528,0.51654,1.51514        l-1.99628,1.81183L28.88052,21.65179z M24.26468,20.72729c-0.04297,0.11401-0.07739,0.25159-0.10815,0.4032l-0.87665-0.15973        l5.6048-5.08954c0.35358,0.22308,0.69305,0.50861,1.01434,0.8479l-2.69635,2.44183        c-0.22833-0.08136-0.47369-0.13116-0.73779-0.13116C25.48831,19.03979,24.62405,19.70386,24.26468,20.72729z         M27.3942,15.24707c0.43872,0.09869,0.84338,0.26263,1.21783,0.47644l-5.70392,5.1795l-1.47394-0.26855L27.3942,15.24707z         M30.0983,16.95349c0.30682,0.36499,0.57806,0.76855,0.80615,1.20691l-2.38409,2.16205        c-0.2478-0.4447-0.60406-0.79962-1.01898-1.01715L30.0983,16.95349z M31.61948,20.30585        c0.08368,0.4826,0.13544,0.95557,0.13544,1.40387c0,0.02667-0.00262,0.04871-0.00415,0.07233l-0.35767,0.32312        l-1.46173-0.26727L31.61948,20.30585z M24.67697,15.53558l-2.36444,2.14221        C22.9227,16.69366,23.74185,15.95105,24.67697,15.53558z M21.88486,18.47028l3.52338-3.19232        c0.50659-0.13452,1.0672-0.16461,1.60999-0.09546l-5.70459,5.15686c0.00812-0.04181,0.00867-0.08014,0.01843-0.12183        C21.44803,19.59119,21.634,19.00397,21.88486,18.47028z M31.55862,23.448c-0.62891,2.85645-2.72363,4.85156-5.09375,4.85156        c-2.91113,0-5.2793-2.95605-5.2793-6.58984c0-0.00488,0-0.00977,0-0.01465c0-0.00525,0.00122-0.01495,0.00122-0.02063        l2.94556,0.53711c0.21942,1.25531,1.1875,2.16827,2.35303,2.17883c0.82617,0,1.60449-0.49023,2.03125-1.2793        c0.00195-0.00391,0.00391-0.00781,0.00586-0.01172c0.03113-0.04926,0.07861-0.15601,0.11462-0.2406l2.93616,0.5238        C31.56839,23.40405,31.56351,23.42651,31.55862,23.448z M31.6846,22.64038c0,0.06152-0.00879,0.13281-0.01758,0.18848        c-0.0127,0.08496-0.02441,0.17188-0.03906,0.25879c-0.05165-0.00921-0.1033-0.01842-0.15495-0.02762        c-0.13417-0.02392-0.26834-0.04784-0.4025-0.07176c-0.18577-0.03312-0.37155-0.06624-0.55732-0.09936        c-0.20647-0.03681-0.41294-0.07362-0.6194-0.11042c-0.19625-0.03499-0.39251-0.06997-0.58876-0.10496        c-0.15513-0.02765-0.31025-0.05531-0.46538-0.08297c-0.11323-0.02019-0.30198-0.06807-0.37527,0.00306        c-0.06899,0.06696-0.09131,0.14813-0.22118,0.39246c-0.37598,0.68164-1.04785,1.10352-1.77734,1.10352        c-0.22935,0-0.45992-0.04774-0.67287-0.13189c-0.21446-0.08474-0.41287-0.20795-0.58685-0.35904        c-0.17983-0.15618-0.33349-0.34174-0.45671-0.54542c-0.12957-0.21418-0.22544-0.44829-0.28598-0.69109        c-0.02174-0.08718-0.04103-0.17551-0.05187-0.2897c-0.01106-0.04962-0.03701-0.09256-0.08181-0.11711        c-0.06627-0.0363-0.15951-0.04182-0.23388-0.05538c-0.11352-0.0207-0.22704-0.0414-0.34056-0.06209        c-0.15387-0.02806-0.30774-0.05611-0.46162-0.08417c-0.17475-0.03186-0.34949-0.06372-0.52424-0.09558        c-0.17614-0.03212-0.35228-0.06423-0.52842-0.09635c-0.15805-0.02882-0.3161-0.05763-0.47416-0.08645        c-0.12048-0.02197-0.24096-0.04393-0.36145-0.0659c-0.06343-0.01157-0.12686-0.02313-0.20565-0.0375        c0.00433-0.16486,0.01373-0.31842,0.0343-0.46906c0,0,3.013,0.54901,3.04034,0.55194        c0.07129,0,0.13477-0.05078,0.14941-0.13086c0.03223-0.19824,0.07227-0.35938,0.12305-0.49414        c0.31738-0.90527,1.07031-1.48926,1.93848-1.48926c0.24219,0,0.48438,0.04688,0.7041,0.13867        c0.48926,0.19336,0.91113,0.61035,1.15723,1.13867c0.07955,0.17078,0.13334,0.35983,0.17251,0.54363        c0.01954,0.09167,0.03448,0.1843,0.04499,0.27744c0.01052,0.09324,0.00794,0.18929,0.02412,0.28152        c0.01578,0.08996,0.01871,0.1882,0.13142,0.20698c0,0,0.87671,0.15918,0.87994,0.15973l1.82025,0.33051l0.28906,0.04883        C31.70316,22.52515,31.69534,22.58276,31.6846,22.64038z" style="fill:#0E459E;"/></g></g><path d="M27.62099,21.56936c-0.01742-0.09391-0.04386-0.18623-0.07893-0.27526      c-0.13126-0.33321-0.40873-0.64876-0.75593-0.76158c-0.31897-0.10365-0.70547-0.00032-0.96521,0.20116      c-0.33285,0.25819-0.50763,0.6789-0.50763,1.09469c0,0.10056,0.01163,0.20044,0.03762,0.32425      c0.09003,0.42882,0.41599,0.82085,0.83752,0.95605c0.45667,0.14646,0.93733-0.08376,1.20431-0.46302      c0.08853-0.12576,0.15494-0.26684,0.19788-0.41442C27.65316,22.01636,27.66164,21.78853,27.62099,21.56936z" style="fill:#FFFFFF;"/></g></g></g><g id="Icons_109_"><g><path d="     M28.53829,22.69335l3.141,0.5509 M27.94769,21.42535c0.0072,0.0143,0.0072,0.0358,0.0072,0.0501     c0.0286,0.1145,0.0358,0.229,0.0358,0.3506c0,0.093-0.0072,0.1789-0.0287,0.2647c0.0143,0.0215,0,0.0358-0.0071,0.0501     c-0.0072,0.0644-0.0143,0.1288-0.0429,0.1932c0,0.0572-0.0144,0.1145-0.043,0.1646c-0.0286,0.093-0.0644,0.1788-0.1073,0.2575      M28.73669,21.78205l3.1124,0.5581 M31.71839,20.00865c-0.1359-0.6511-0.3506-1.2593-0.62959-1.8173     c-0.2648-0.5438-0.5939-1.0303-0.9731-1.4597c-0.3721-0.4149-0.7942-0.7727-1.245-1.0446     c-0.4722-0.2933-0.9874-0.5008-1.524-0.6082c-0.2862-0.0643-0.5867-0.0929-0.8872-0.0929c-0.3864,0-0.7656,0.05-1.1233,0.1502     c-1.5383,0.3935-2.8334,1.6027-3.5846,3.2484c-0.2576,0.558-0.4508,1.1591-0.5725,1.803     c-0.0357,0.1717-0.0643,0.3577-0.0787,0.5366c-0.0071,0.0072-0.0071,0.0143-0.0071,0.0215     c-0.0072,0.0501-0.0072,0.093-0.0143,0.1431c-0.0287,0.2075-0.0358,0.4221-0.0358,0.6439     c-0.0071,0.0573-0.0071,0.1217-0.0071,0.1789c0,3.7206,2.4255,6.7328,5.4234,6.7328c2.5114,0,4.615-2.1035,5.2374-4.9655     c0.0573-0.2075,0.0859-0.415,0.1145-0.6296c0.0143-0.0645,0.0215-0.136,0.0215-0.2076c0.0286-0.1645,0.0357-0.3291,0.0429-0.5008     c0.0143-0.093,0.0215-0.1932,0.0143-0.2862c0.0072-0.0501,0.0072-0.093,0.0072-0.1431     C31.89729,21.12485,31.83289,20.55245,31.71839,20.00865z M27.94059,21.42535h0.0071c0.0072,0.0143,0.0072,0.0358,0.0072,0.0501     c0.0286,0.1145,0.0358,0.2289,0.0358,0.3506c0,0.093-0.0072,0.1789-0.0286,0.2647c0.0142,0.0215,0,0.0358-0.0072,0.0501     c-0.0072,0.0644-0.0143,0.1288-0.0429,0.1932c0,0.0572-0.0144,0.1145-0.043,0.1646c-0.0286,0.0929-0.0644,0.1788-0.1073,0.2575     c-0.2719,0.4937-0.7441,0.8157-1.2807,0.8157c-0.0143,0-0.0143,0-0.0215,0c-0.7012-0.0071-1.28069-0.5653-1.4453-1.3165     c-0.0286-0.136-0.0501-0.2791-0.0501-0.4293c0-0.9373,0.644-1.7029,1.4525-1.7387c0.0143-0.0071,0.0286-0.0071,0.0429-0.0071     c0.0072,0,0.0072,0,0.0215,0c0.6153,0,1.1448,0.4293,1.3737,1.0374C27.89049,21.21785,27.91909,21.31805,27.94059,21.42535z      M31.71839,20.00865c-0.1359-0.6511-0.3506-1.2593-0.62959-1.8173c-0.2648-0.5438-0.5939-1.0303-0.9731-1.4597     c-0.3721-0.4149-0.7942-0.7727-1.245-1.0446c-0.4722-0.2933-0.9874-0.5008-1.524-0.6082     c-0.2862-0.0643-0.5867-0.0929-0.8872-0.0929c-0.3864,0-0.7656,0.05-1.1233,0.1502c-1.5383,0.3935-2.8334,1.6027-3.5846,3.2484     c-0.2576,0.558-0.4508,1.1591-0.5725,1.803c-0.0357,0.1717-0.0643,0.3577-0.0787,0.5366     c-0.0071,0.0072-0.0071,0.0143-0.0071,0.0215c-0.0072,0.0501-0.0072,0.093-0.0143,0.1431     c-0.0287,0.2075-0.0358,0.4221-0.0358,0.6439c-0.0071,0.0573-0.0071,0.1217-0.0071,0.1789c0,3.7206,2.4255,6.7328,5.4234,6.7328     c2.5114,0,4.615-2.1035,5.2374-4.9655c0.0573-0.2075,0.0859-0.415,0.1145-0.6296c0.0143-0.0645,0.0215-0.136,0.0215-0.2076     c0.0286-0.1645,0.0357-0.3291,0.0429-0.5008c0.0143-0.093,0.0215-0.1932,0.0143-0.2862c0.0072-0.0501,0.0072-0.093,0.0072-0.1431     C31.89729,21.12485,31.83289,20.55245,31.71839,20.00865z M27.94059,21.42535h0.0071c0.0072,0.0143,0.0072,0.0358,0.0072,0.0501     c0.0286,0.1145,0.0358,0.2289,0.0358,0.3506c0,0.093-0.0072,0.1789-0.0286,0.2647c0.0142,0.0215,0,0.0358-0.0072,0.0501     c-0.0072,0.0644-0.0143,0.1288-0.0429,0.1932c0,0.0572-0.0144,0.1145-0.043,0.1646c-0.0286,0.0929-0.0644,0.1788-0.1073,0.2575     c-0.2719,0.4937-0.7441,0.8157-1.2807,0.8157c-0.0143,0-0.0143,0-0.0215,0c-0.7012-0.0071-1.28069-0.5653-1.4453-1.3165     c-0.0286-0.136-0.0501-0.2791-0.0501-0.4293c0-0.9373,0.644-1.7029,1.4525-1.7387c0.0143-0.0071,0.0286-0.0071,0.0429-0.0071     c0.0072,0,0.0072,0,0.0215,0c0.6153,0,1.1448,0.4293,1.3737,1.0374C27.89049,21.21785,27.91909,21.31805,27.94059,21.42535z      M31.71839,20.00865c-0.1359-0.6511-0.3506-1.2593-0.62959-1.8173c-0.2648-0.5438-0.5939-1.0303-0.9731-1.4597     c-0.3721-0.4149-0.7942-0.7727-1.245-1.0446c-0.4722-0.2933-0.9874-0.5008-1.524-0.6082     c-0.2862-0.0643-0.5867-0.0929-0.8872-0.0929c-0.3864,0-0.7656,0.05-1.1233,0.1502c-1.5383,0.3935-2.8334,1.6027-3.5846,3.2484     c-0.2576,0.558-0.4508,1.1591-0.5725,1.803c-0.0357,0.1717-0.0643,0.3577-0.0787,0.5366     c-0.0071,0.0072-0.0071,0.0143-0.0071,0.0215c-0.0072,0.0501-0.0072,0.093-0.0143,0.1431     c-0.0287,0.2075-0.0358,0.4221-0.0358,0.6439c-0.0071,0.0573-0.0071,0.1217-0.0071,0.1789c0,3.7206,2.4255,6.7328,5.4234,6.7328     c2.5114,0,4.615-2.1035,5.2374-4.9655c0.0573-0.2075,0.0859-0.415,0.1145-0.6296c0.0143-0.0645,0.0215-0.136,0.0215-0.2076     c0.0286-0.1645,0.0357-0.3291,0.0429-0.5008c0.0143-0.093,0.0215-0.1932,0.0143-0.2862c0.0072-0.0501,0.0072-0.093,0.0072-0.1431     C31.89729,21.12485,31.83289,20.55245,31.71839,20.00865z M27.94059,21.42535h0.0071c0.0072,0.0143,0.0072,0.0358,0.0072,0.0501     c0.0286,0.1145,0.0358,0.2289,0.0358,0.3506c0,0.093-0.0072,0.1789-0.0286,0.2647c0.0142,0.0215,0,0.0358-0.0072,0.0501     c-0.0072,0.0644-0.0143,0.1288-0.0429,0.1932c0,0.0572-0.0144,0.1145-0.043,0.1646c-0.0286,0.0929-0.0644,0.1788-0.1073,0.2575     c-0.2719,0.4937-0.7441,0.8157-1.2807,0.8157c-0.0143,0-0.0143,0-0.0215,0c-0.7012-0.0071-1.28069-0.5653-1.4453-1.3165     c-0.0286-0.136-0.0501-0.2791-0.0501-0.4293c0-0.9373,0.644-1.7029,1.4525-1.7387c0.0143-0.0071,0.0286-0.0071,0.0429-0.0071     c0.0072,0,0.0072,0,0.0215,0c0.6153,0,1.1448,0.4293,1.3737,1.0374C27.89049,21.21785,27.91909,21.31805,27.94059,21.42535z      M31.71839,20.00865c-0.1359-0.6511-0.3506-1.2593-0.62959-1.8173c-0.2648-0.5438-0.5939-1.0303-0.9731-1.4597     c-0.3721-0.4149-0.7942-0.7727-1.245-1.0446c-0.4722-0.2933-0.9874-0.5008-1.524-0.6082     c-0.2862-0.0643-0.5867-0.0929-0.8872-0.0929c-0.3864,0-0.7656,0.05-1.1233,0.1502c-1.5383,0.3935-2.8334,1.6027-3.5846,3.2484     c-0.2576,0.558-0.4508,1.1591-0.5725,1.803c-0.0357,0.1717-0.0643,0.3577-0.0787,0.5366     c-0.0071,0.0072-0.0071,0.0143-0.0071,0.0215c-0.0072,0.0501-0.0072,0.093-0.0143,0.1431     c-0.0287,0.2075-0.0358,0.4221-0.0358,0.6439c-0.0071,0.0573-0.0071,0.1217-0.0071,0.1789c0,3.7206,2.4255,6.7328,5.4234,6.7328     c2.5114,0,4.615-2.1035,5.2374-4.9655c0.0573-0.2075,0.0859-0.415,0.1145-0.6296c0.0143-0.0645,0.0215-0.136,0.0215-0.2076     c0.0286-0.1645,0.0357-0.3291,0.0429-0.5008c0.0143-0.093,0.0215-0.1932,0.0143-0.2862c0.0072-0.0501,0.0072-0.093,0.0072-0.1431     C31.89729,21.12485,31.83289,20.55245,31.71839,20.00865z M27.94059,21.42535h0.0071c0.0072,0.0143,0.0072,0.0358,0.0072,0.0501     c0.0286,0.1145,0.0358,0.2289,0.0358,0.3506c0,0.093-0.0072,0.1789-0.0286,0.2647c0.0142,0.0215,0,0.0358-0.0072,0.0501     c-0.0072,0.0644-0.0143,0.1288-0.0429,0.1932c0,0.0572-0.0144,0.1145-0.043,0.1646c-0.0286,0.0929-0.0644,0.1788-0.1073,0.2575     c-0.2719,0.4937-0.7441,0.8157-1.2807,0.8157c-0.0143,0-0.0143,0-0.0215,0c-0.7012-0.0071-1.28069-0.5653-1.4453-1.3165     c-0.0286-0.136-0.0501-0.2791-0.0501-0.4293c0-0.9373,0.644-1.7029,1.4525-1.7387c0.0143-0.0071,0.0286-0.0071,0.0429-0.0071     c0.0072,0,0.0072,0,0.0215,0c0.6153,0,1.1448,0.4293,1.3737,1.0374C27.89049,21.21785,27.91909,21.31805,27.94059,21.42535z      M31.71839,20.00865c-0.1359-0.6511-0.3506-1.2593-0.62959-1.8173c-0.2648-0.5438-0.5939-1.0303-0.9731-1.4597     c-0.3721-0.4149-0.7942-0.7727-1.245-1.0446c-0.4722-0.2933-0.9874-0.5008-1.524-0.6082     c-0.2862-0.0643-0.5867-0.0929-0.8872-0.0929c-0.3864,0-0.7656,0.05-1.1233,0.1502c-1.5383,0.3935-2.8334,1.6027-3.5846,3.2484     c-0.2576,0.558-0.4508,1.1591-0.5725,1.803c-0.0357,0.1717-0.0643,0.3577-0.0787,0.5366     c-0.0071,0.0072-0.0071,0.0143-0.0071,0.0215c-0.0072,0.0501-0.0072,0.093-0.0143,0.1431     c-0.0287,0.2075-0.0358,0.4221-0.0358,0.6439c-0.0071,0.0573-0.0071,0.1217-0.0071,0.1789c0,3.7206,2.4255,6.7328,5.4234,6.7328     c2.5114,0,4.615-2.1035,5.2374-4.9655c0.0573-0.2075,0.0859-0.415,0.1145-0.6296c0.0143-0.0645,0.0215-0.136,0.0215-0.2076     c0.0286-0.1645,0.0357-0.3291,0.0429-0.5008c0.0143-0.093,0.0215-0.1932,0.0143-0.2862c0.0072-0.0501,0.0072-0.093,0.0072-0.1431     C31.89729,21.12485,31.83289,20.55245,31.71839,20.00865z M27.94059,21.42535h0.0071c0.0072,0.0143,0.0072,0.0358,0.0072,0.0501     c0.0286,0.1145,0.0358,0.2289,0.0358,0.3506c0,0.093-0.0072,0.1789-0.0286,0.2647c0.0142,0.0215,0,0.0358-0.0072,0.0501     c-0.0072,0.0644-0.0143,0.1288-0.0429,0.1932c0,0.0572-0.0144,0.1145-0.043,0.1646c-0.0286,0.0929-0.0644,0.1788-0.1073,0.2575     c-0.2719,0.4937-0.7441,0.8157-1.2807,0.8157c-0.0143,0-0.0143,0-0.0215,0c-0.7012-0.0071-1.28069-0.5653-1.4453-1.3165     c-0.0286-0.136-0.0501-0.2791-0.0501-0.4293c0-0.9373,0.644-1.7029,1.4525-1.7387c0.0143-0.0071,0.0286-0.0071,0.0429-0.0071     c0.0072,0,0.0072,0,0.0215,0c0.6153,0,1.1448,0.4293,1.3737,1.0374C27.89049,21.21785,27.91909,21.31805,27.94059,21.42535z      M31.71839,20.00865c-0.1359-0.6511-0.3506-1.2593-0.62959-1.8173c-0.2648-0.5438-0.5939-1.0303-0.9731-1.4597     c-0.3721-0.4149-0.7942-0.7727-1.245-1.0446c-0.4722-0.2933-0.9874-0.5008-1.524-0.6082     c-0.2862-0.0643-0.5867-0.0929-0.8872-0.0929c-0.3864,0-0.7656,0.05-1.1233,0.1502c-1.5383,0.3935-2.8334,1.6027-3.5846,3.2484     c-0.2576,0.558-0.4508,1.1591-0.5725,1.803c-0.0357,0.1717-0.0643,0.3577-0.0787,0.5366     c-0.0071,0.0072-0.0071,0.0143-0.0071,0.0215c-0.0072,0.0501-0.0072,0.093-0.0143,0.1431     c-0.0287,0.2075-0.0358,0.4221-0.0358,0.6439c-0.0071,0.0573-0.0071,0.1217-0.0071,0.1789c0,3.7206,2.4255,6.7328,5.4234,6.7328     c2.5114,0,4.615-2.1035,5.2374-4.9655c0.0573-0.2075,0.0859-0.415,0.1145-0.6296c0.0143-0.0645,0.0215-0.136,0.0215-0.2076     c0.0286-0.1645,0.0357-0.3291,0.0429-0.5008c0.0143-0.093,0.0215-0.1932,0.0143-0.2862c0.0072-0.0501,0.0072-0.093,0.0072-0.1431     C31.89729,21.12485,31.83289,20.55245,31.71839,20.00865z M27.94059,21.42535h0.0071c0.0072,0.0143,0.0072,0.0358,0.0072,0.0501     c0.0286,0.1145,0.0358,0.2289,0.0358,0.3506c0,0.093-0.0072,0.1789-0.0286,0.2647c0.0142,0.0215,0,0.0358-0.0072,0.0501     c-0.0072,0.0644-0.0143,0.1288-0.0429,0.1932c0,0.0572-0.0144,0.1145-0.043,0.1646c-0.0286,0.0929-0.0644,0.1788-0.1073,0.2575     c-0.2719,0.4937-0.7441,0.8157-1.2807,0.8157c-0.0143,0-0.0143,0-0.0215,0c-0.7012-0.0071-1.28069-0.5653-1.4453-1.3165     c-0.0286-0.136-0.0501-0.2791-0.0501-0.4293c0-0.9373,0.644-1.7029,1.4525-1.7387c0.0143-0.0071,0.0286-0.0071,0.0429-0.0071     c0.0072,0,0.0072,0,0.0215,0c0.6153,0,1.1448,0.4293,1.3737,1.0374C27.89049,21.21785,27.91909,21.31805,27.94059,21.42535z      M31.71839,20.00865c-0.1359-0.6511-0.3506-1.2593-0.62959-1.8173c-0.2648-0.5438-0.5939-1.0303-0.9731-1.4597     c-0.3721-0.4149-0.7942-0.7727-1.245-1.0446c-0.4722-0.2933-0.9874-0.5008-1.524-0.6082     c-0.2862-0.0643-0.5867-0.0929-0.8872-0.0929c-0.3864,0-0.7656,0.05-1.1233,0.1502c-1.5383,0.3935-2.8334,1.6027-3.5846,3.2484     c-0.2576,0.558-0.4508,1.1591-0.5725,1.803c-0.0357,0.1717-0.0643,0.3577-0.0787,0.5366     c-0.0071,0.0072-0.0071,0.0143-0.0071,0.0215c-0.0072,0.0501-0.0072,0.093-0.0143,0.1431     c-0.0287,0.2075-0.0358,0.4221-0.0358,0.6439c-0.0071,0.0573-0.0071,0.1217-0.0071,0.1789c0,3.7206,2.4255,6.7328,5.4234,6.7328     c2.5114,0,4.615-2.1035,5.2374-4.9655c0.0573-0.2075,0.0859-0.415,0.1145-0.6296c0.0143-0.0645,0.0215-0.136,0.0215-0.2076     c0.0286-0.1645,0.0357-0.3291,0.0429-0.5008c0.0143-0.093,0.0215-0.1932,0.0143-0.2862c0.0072-0.0501,0.0072-0.093,0.0072-0.1431     C31.89729,21.12485,31.83289,20.55245,31.71839,20.00865z M27.94059,21.42535h0.0071c0.0072,0.0143,0.0072,0.0358,0.0072,0.0501     c0.0286,0.1145,0.0358,0.2289,0.0358,0.3506c0,0.093-0.0072,0.1789-0.0286,0.2647c0.0142,0.0215,0,0.0358-0.0072,0.0501     c-0.0072,0.0644-0.0143,0.1288-0.0429,0.1932c0,0.0572-0.0144,0.1145-0.043,0.1646c-0.0286,0.0929-0.0644,0.1788-0.1073,0.2575     c-0.2719,0.4937-0.7441,0.8157-1.2807,0.8157c-0.0143,0-0.0143,0-0.0215,0c-0.7012-0.0071-1.28069-0.5653-1.4453-1.3165     c-0.0286-0.136-0.0501-0.2791-0.0501-0.4293c0-0.9373,0.644-1.7029,1.4525-1.7387c0.0143-0.0071,0.0286-0.0071,0.0429-0.0071     c0.0072,0,0.0072,0,0.0215,0c0.6153,0,1.1448,0.4293,1.3737,1.0374C27.89049,21.21785,27.91909,21.31805,27.94059,21.42535z      M31.71839,20.00865c-0.1359-0.6511-0.3506-1.2593-0.62959-1.8173c-0.2648-0.5438-0.5939-1.0303-0.9731-1.4597     c-0.3721-0.4149-0.7942-0.7727-1.245-1.0446c-0.4722-0.2933-0.9874-0.5008-1.524-0.6082     c-0.2862-0.0643-0.5867-0.0929-0.8872-0.0929c-0.3864,0-0.7656,0.05-1.1233,0.1502c-1.5383,0.3935-2.8334,1.6027-3.5846,3.2484     c-0.2576,0.558-0.4508,1.1591-0.5725,1.803c-0.0357,0.1717-0.0643,0.3577-0.0787,0.5366     c-0.0071,0.0072-0.0071,0.0143-0.0071,0.0215c-0.0072,0.0501-0.0072,0.093-0.0143,0.1431     c-0.0287,0.2075-0.0358,0.4221-0.0358,0.6439c-0.0071,0.0573-0.0071,0.1217-0.0071,0.1789c0,3.7206,2.4255,6.7328,5.4234,6.7328     c2.5114,0,4.615-2.1035,5.2374-4.9655c0.0573-0.2075,0.0859-0.415,0.1145-0.6296c0.0143-0.0645,0.0215-0.136,0.0215-0.2076     c0.0286-0.1645,0.0357-0.3291,0.0429-0.5008c0.0143-0.093,0.0215-0.1932,0.0143-0.2862c0.0072-0.0501,0.0072-0.093,0.0072-0.1431     C31.89729,21.12485,31.83289,20.55245,31.71839,20.00865z M27.94059,21.42535h0.0071c0.0072,0.0143,0.0072,0.0358,0.0072,0.0501     c0.0286,0.1145,0.0358,0.2289,0.0358,0.3506c0,0.093-0.0072,0.1789-0.0286,0.2647c0.0142,0.0215,0,0.0358-0.0072,0.0501     c-0.0072,0.0644-0.0143,0.1288-0.0429,0.1932c0,0.0572-0.0144,0.1145-0.043,0.1646c-0.0286,0.0929-0.0644,0.1788-0.1073,0.2575     c-0.2719,0.4937-0.7441,0.8157-1.2807,0.8157c-0.0143,0-0.0143,0-0.0215,0c-0.7012-0.0071-1.28069-0.5653-1.4453-1.3165     c-0.0286-0.136-0.0501-0.2791-0.0501-0.4293c0-0.9373,0.644-1.7029,1.4525-1.7387c0.0143-0.0071,0.0286-0.0071,0.0429-0.0071     c0.0072,0,0.0072,0,0.0215,0c0.6153,0,1.1448,0.4293,1.3737,1.0374C27.89049,21.21785,27.91909,21.31805,27.94059,21.42535z      M31.71839,20.00865c-0.1359-0.6511-0.3506-1.2593-0.62959-1.8173c-0.2648-0.5438-0.5939-1.0303-0.9731-1.4597     c-0.3721-0.4149-0.7942-0.7727-1.245-1.0446c-0.4722-0.2933-0.9874-0.5008-1.524-0.6082     c-0.2862-0.0643-0.5867-0.0929-0.8872-0.0929c-0.3864,0-0.7656,0.05-1.1233,0.1502c-1.5383,0.3935-2.8334,1.6027-3.5846,3.2484     c-0.2576,0.558-0.4508,1.1591-0.5725,1.803c-0.0357,0.1717-0.0643,0.3577-0.0787,0.5366     c-0.0071,0.0072-0.0071,0.0143-0.0071,0.0215c-0.0072,0.0501-0.0072,0.093-0.0143,0.1431     c-0.0287,0.2075-0.0358,0.4221-0.0358,0.6439c-0.0071,0.0573-0.0071,0.1217-0.0071,0.1789c0,3.7206,2.4255,6.7328,5.4234,6.7328     c2.5114,0,4.615-2.1035,5.2374-4.9655c0.0573-0.2075,0.0859-0.415,0.1145-0.6296c0.0143-0.0645,0.0215-0.136,0.0215-0.2076     c0.0286-0.1645,0.0357-0.3291,0.0429-0.5008c0.0143-0.093,0.0215-0.1932,0.0143-0.2862c0.0072-0.0501,0.0072-0.093,0.0072-0.1431     C31.89729,21.12485,31.83289,20.55245,31.71839,20.00865z M27.94059,21.42535h0.0071c0.0072,0.0143,0.0072,0.0358,0.0072,0.0501     c0.0286,0.1145,0.0358,0.2289,0.0358,0.3506c0,0.093-0.0072,0.1789-0.0286,0.2647c0.0142,0.0215,0,0.0358-0.0072,0.0501     c-0.0072,0.0644-0.0143,0.1288-0.0429,0.1932c0,0.0572-0.0144,0.1145-0.043,0.1646c-0.0286,0.0929-0.0644,0.1788-0.1073,0.2575     c-0.2719,0.4937-0.7441,0.8157-1.2807,0.8157c-0.0143,0-0.0143,0-0.0215,0c-0.7012-0.0071-1.28069-0.5653-1.4453-1.3165     c-0.0286-0.136-0.0501-0.2791-0.0501-0.4293c0-0.9373,0.644-1.7029,1.4525-1.7387c0.0143-0.0071,0.0286-0.0071,0.0429-0.0071     c0.0072,0,0.0072,0,0.0215,0c0.6153,0,1.1448,0.4293,1.3737,1.0374C27.89049,21.21785,27.91909,21.31805,27.94059,21.42535z      M31.71839,20.00865c-0.1359-0.6511-0.3506-1.2593-0.62959-1.8173c-0.2648-0.5438-0.5939-1.0303-0.9731-1.4597     c-0.3721-0.4149-0.7942-0.7727-1.245-1.0446c-0.4722-0.2933-0.9874-0.5008-1.524-0.6082     c-0.2862-0.0643-0.5867-0.0929-0.8872-0.0929c-0.3864,0-0.7656,0.05-1.1233,0.1502c-1.5383,0.3935-2.8334,1.6027-3.5846,3.2484     c-0.2576,0.558-0.4508,1.1591-0.5725,1.803c-0.0357,0.1717-0.0643,0.3577-0.0787,0.5366     c-0.0071,0.0072-0.0071,0.0143-0.0071,0.0215c-0.0072,0.0501-0.0072,0.093-0.0143,0.1431     c-0.0287,0.2075-0.0358,0.4221-0.0358,0.6439c-0.0071,0.0573-0.0071,0.1217-0.0071,0.1789c0,3.7206,2.4255,6.7328,5.4234,6.7328     c2.5114,0,4.615-2.1035,5.2374-4.9655c0.0573-0.2075,0.0859-0.415,0.1145-0.6296c0.0143-0.0645,0.0215-0.136,0.0215-0.2076     c0.0286-0.1645,0.0357-0.3291,0.0429-0.5008c0.0143-0.093,0.0215-0.1932,0.0143-0.2862c0.0072-0.0501,0.0072-0.093,0.0072-0.1431     C31.89729,21.12485,31.83289,20.55245,31.71839,20.00865z M27.94059,21.42535h0.0071c0.0072,0.0143,0.0072,0.0358,0.0072,0.0501     c0.0286,0.1145,0.0358,0.2289,0.0358,0.3506c0,0.093-0.0072,0.1789-0.0286,0.2647c0.0142,0.0215,0,0.0358-0.0072,0.0501     c-0.0072,0.0644-0.0143,0.1288-0.0429,0.1932c0,0.0572-0.0144,0.1145-0.043,0.1646c-0.0286,0.0929-0.0644,0.1788-0.1073,0.2575     c-0.2719,0.4937-0.7441,0.8157-1.2807,0.8157c-0.0143,0-0.0143,0-0.0215,0c-0.7012-0.0071-1.28069-0.5653-1.4453-1.3165     c-0.0286-0.136-0.0501-0.2791-0.0501-0.4293c0-0.9373,0.644-1.7029,1.4525-1.7387c0.0143-0.0071,0.0286-0.0071,0.0429-0.0071     c0.0072,0,0.0072,0,0.0215,0c0.6153,0,1.1448,0.4293,1.3737,1.0374C27.89049,21.21785,27.91909,21.31805,27.94059,21.42535z      M31.71839,20.00865c-0.1359-0.6511-0.3506-1.2593-0.62959-1.8173c-0.2648-0.5438-0.5939-1.0303-0.9731-1.4597     c-0.3721-0.4149-0.7942-0.7727-1.245-1.0446c-0.4722-0.2933-0.9874-0.5008-1.524-0.6082     c-0.2862-0.0643-0.5867-0.0929-0.8872-0.0929c-0.3864,0-0.7656,0.05-1.1233,0.1502c-1.5383,0.3935-2.8334,1.6027-3.5846,3.2484     c-0.2576,0.558-0.4508,1.1591-0.5725,1.803c-0.0357,0.1717-0.0643,0.3577-0.0787,0.5366     c-0.0071,0.0072-0.0071,0.0143-0.0071,0.0215c-0.0072,0.0501-0.0072,0.093-0.0143,0.1431     c-0.0287,0.2075-0.0358,0.4221-0.0358,0.6439c-0.0071,0.0573-0.0071,0.1217-0.0071,0.1789c0,3.7206,2.4255,6.7328,5.4234,6.7328     c2.5114,0,4.615-2.1035,5.2374-4.9655c0.0573-0.2075,0.0859-0.415,0.1145-0.6296c0.0143-0.0645,0.0215-0.136,0.0215-0.2076     c0.0286-0.1645,0.0357-0.3291,0.0429-0.5008c0.0143-0.093,0.0215-0.1932,0.0143-0.2862c0.0072-0.0501,0.0072-0.093,0.0072-0.1431     C31.89729,21.12485,31.83289,20.55245,31.71839,20.00865z M27.94059,21.42535h0.0071c0.0072,0.0143,0.0072,0.0358,0.0072,0.0501     c0.0286,0.1145,0.0358,0.2289,0.0358,0.3506c0,0.093-0.0072,0.1789-0.0286,0.2647c0.0142,0.0215,0,0.0358-0.0072,0.0501     c-0.0072,0.0644-0.0143,0.1288-0.0429,0.1932c0,0.0572-0.0144,0.1145-0.043,0.1646c-0.0286,0.0929-0.0644,0.1788-0.1073,0.2575     c-0.2719,0.4937-0.7441,0.8157-1.2807,0.8157c-0.0143,0-0.0143,0-0.0215,0c-0.7012-0.0071-1.28069-0.5653-1.4453-1.3165     c-0.0286-0.136-0.0501-0.2791-0.0501-0.4293c0-0.9373,0.644-1.7029,1.4525-1.7387c0.0143-0.0071,0.0286-0.0071,0.0429-0.0071     c0.0072,0,0.0072,0,0.0215,0c0.6153,0,1.1448,0.4293,1.3737,1.0374C27.89049,21.21785,27.91909,21.31805,27.94059,21.42535z      M31.71839,20.00865c-0.1359-0.6511-0.3506-1.2593-0.62959-1.8173c-0.2648-0.5438-0.5939-1.0303-0.9731-1.4597     c-0.3721-0.4149-0.7942-0.7727-1.245-1.0446c-0.4722-0.2933-0.9874-0.5008-1.524-0.6082     c-0.2862-0.0643-0.5867-0.0929-0.8872-0.0929c-0.3864,0-0.7656,0.05-1.1233,0.1502c-1.5383,0.3935-2.8334,1.6027-3.5846,3.2484     c-0.2576,0.558-0.4508,1.1591-0.5725,1.803c-0.0357,0.1717-0.0643,0.3577-0.0787,0.5366     c-0.0071,0.0072-0.0071,0.0143-0.0071,0.0215c-0.0072,0.0501-0.0072,0.093-0.0143,0.1431     c-0.0287,0.2075-0.0358,0.4221-0.0358,0.6439c-0.0071,0.0573-0.0071,0.1217-0.0071,0.1789c0,3.7206,2.4255,6.7328,5.4234,6.7328     c2.5114,0,4.615-2.1035,5.2374-4.9655c0.0573-0.2075,0.0859-0.415,0.1145-0.6296c0.0143-0.0645,0.0215-0.136,0.0215-0.2076     c0.0286-0.1645,0.0357-0.3291,0.0429-0.5008c0.0143-0.093,0.0215-0.1932,0.0143-0.2862c0.0072-0.0501,0.0072-0.093,0.0072-0.1431     C31.89729,21.12485,31.83289,20.55245,31.71839,20.00865z M27.94059,21.42535h0.0071c0.0072,0.0143,0.0072,0.0358,0.0072,0.0501     c0.0286,0.1145,0.0358,0.2289,0.0358,0.3506c0,0.093-0.0072,0.1789-0.0286,0.2647c0.0142,0.0215,0,0.0358-0.0072,0.0501     c-0.0072,0.0644-0.0143,0.1288-0.0429,0.1932c0,0.0572-0.0144,0.1145-0.043,0.1646c-0.0286,0.0929-0.0644,0.1788-0.1073,0.2575     c-0.2719,0.4937-0.7441,0.8157-1.2807,0.8157c-0.0143,0-0.0143,0-0.0215,0c-0.7012-0.0071-1.28069-0.5653-1.4453-1.3165     c-0.0286-0.136-0.0501-0.2791-0.0501-0.4293c0-0.9373,0.644-1.7029,1.4525-1.7387c0.0143-0.0071,0.0286-0.0071,0.0429-0.0071     c0.0072,0,0.0072,0,0.0215,0c0.6153,0,1.1448,0.4293,1.3737,1.0374C27.89049,21.21785,27.91909,21.31805,27.94059,21.42535z      M33.1852,31.79295c0,1.1018-0.69668,2.23953-2.1966,1.9962l-4.5291-0.8014l-4.4933-0.7942     c-1.7315-0.3291-2.1966-0.8943-2.1966-1.9962V13.00964c0-1.36404,0.68873-1.87789,1.7959-1.67989l4.894,0.83l4.5291,0.7655     c1.5723,0.29579,2.1966,0.8944,2.1966,1.9963V31.79295z M31.08879,18.19135c-0.2648-0.5438-0.5939-1.0303-0.9731-1.4597     c-0.3721-0.4149-0.7942-0.7727-1.245-1.0446c-0.4722-0.2933-0.9874-0.5008-1.524-0.6082     c-0.2862-0.0643-0.5867-0.0929-0.8872-0.0929c-0.3864,0-0.7656,0.05-1.1233,0.1502c-1.5383,0.3935-2.8334,1.6027-3.5846,3.2484     c-0.2576,0.558-0.4508,1.1591-0.5725,1.803c-0.0357,0.1717-0.0643,0.3577-0.0787,0.5366     c-0.0071,0.0072-0.0071,0.0143-0.0071,0.0215c-0.0072,0.0501-0.0072,0.093-0.0143,0.1431     c-0.0287,0.2075-0.0358,0.4221-0.0358,0.6439c-0.0071,0.0573-0.0071,0.1217-0.0071,0.1789c0,3.7206,2.4255,6.7328,5.4234,6.7328     c2.5114,0,4.615-2.1035,5.2374-4.9655c0.0573-0.2075,0.0859-0.415,0.1145-0.6296c0.0143-0.0645,0.0215-0.136,0.0215-0.2076     c0.0286-0.1645,0.0357-0.3291,0.0429-0.5008c0.0143-0.093,0.0215-0.1932,0.0143-0.2862c0.0072-0.0501,0.0072-0.093,0.0072-0.1431     c0-0.5867-0.0644-1.1591-0.1789-1.7029C31.58249,19.35755,31.36779,18.74935,31.08879,18.19135z M27.94059,21.42535h0.0071     c0.0072,0.0143,0.0072,0.0358,0.0072,0.0501c0.0286,0.1145,0.0358,0.2289,0.0358,0.3506c0,0.093-0.0072,0.1789-0.0286,0.2647     c0.0142,0.0215,0,0.0358-0.0072,0.0501c-0.0072,0.0644-0.0143,0.1288-0.0429,0.1932c0,0.0572-0.0144,0.1145-0.043,0.1646     c-0.0286,0.0929-0.0644,0.1788-0.1073,0.2575c-0.2719,0.4937-0.7441,0.8157-1.2807,0.8157c-0.0143,0-0.0143,0-0.0215,0     c-0.7012-0.0071-1.28069-0.5653-1.4453-1.3165c-0.0286-0.136-0.0501-0.2791-0.0501-0.4293c0-0.9373,0.644-1.7029,1.4525-1.7387     c0.0143-0.0071,0.0286-0.0071,0.0429-0.0071c0.0072,0,0.0072,0,0.0215,0c0.6153,0,1.1448,0.4293,1.3737,1.0374     C27.89049,21.21785,27.91909,21.31805,27.94059,21.42535z M31.71839,20.00865c-0.1359-0.6511-0.3506-1.2593-0.62959-1.8173     c-0.2648-0.5438-0.5939-1.0303-0.9731-1.4597c-0.3721-0.4149-0.7942-0.7727-1.245-1.0446     c-0.4722-0.2933-0.9874-0.5008-1.524-0.6082c-0.2862-0.0643-0.5867-0.0929-0.8872-0.0929c-0.3864,0-0.7656,0.05-1.1233,0.1502     c-1.5383,0.3935-2.8334,1.6027-3.5846,3.2484c-0.2576,0.558-0.4508,1.1591-0.5725,1.803     c-0.0357,0.1717-0.0643,0.3577-0.0787,0.5366c-0.0071,0.0072-0.0071,0.0143-0.0071,0.0215     c-0.0072,0.0501-0.0072,0.093-0.0143,0.1431c-0.0287,0.2075-0.0358,0.4221-0.0358,0.6439     c-0.0071,0.0573-0.0071,0.1217-0.0071,0.1789c0,3.7206,2.4255,6.7328,5.4234,6.7328c2.5114,0,4.615-2.1035,5.2374-4.9655     c0.0573-0.2075,0.0859-0.415,0.1145-0.6296c0.0143-0.0645,0.0215-0.136,0.0215-0.2076c0.0286-0.1645,0.0357-0.3291,0.0429-0.5008     c0.0143-0.093,0.0215-0.1932,0.0143-0.2862c0.0072-0.0501,0.0072-0.093,0.0072-0.1431     C31.89729,21.12485,31.83289,20.55245,31.71839,20.00865z M27.94059,21.42535h0.0071c0.0072,0.0143,0.0072,0.0358,0.0072,0.0501     c0.0286,0.1145,0.0358,0.2289,0.0358,0.3506c0,0.093-0.0072,0.1789-0.0286,0.2647c0.0142,0.0215,0,0.0358-0.0072,0.0501     c-0.0072,0.0644-0.0143,0.1288-0.0429,0.1932c0,0.0572-0.0144,0.1145-0.043,0.1646c-0.0286,0.0929-0.0644,0.1788-0.1073,0.2575     c-0.2719,0.4937-0.7441,0.8157-1.2807,0.8157c-0.0143,0-0.0143,0-0.0215,0c-0.7012-0.0071-1.28069-0.5653-1.4453-1.3165     c-0.0286-0.136-0.0501-0.2791-0.0501-0.4293c0-0.9373,0.644-1.7029,1.4525-1.7387c0.0143-0.0071,0.0286-0.0071,0.0429-0.0071     c0.0072,0,0.0072,0,0.0215,0c0.6153,0,1.1448,0.4293,1.3737,1.0374C27.89049,21.21785,27.91909,21.31805,27.94059,21.42535z      M31.71839,20.00865c-0.1359-0.6511-0.3506-1.2593-0.62959-1.8173c-0.2648-0.5438-0.5939-1.0303-0.9731-1.4597     c-0.3721-0.4149-0.7942-0.7727-1.245-1.0446c-0.4722-0.2933-0.9874-0.5008-1.524-0.6082     c-0.2862-0.0643-0.5867-0.0929-0.8872-0.0929c-0.3864,0-0.7656,0.05-1.1233,0.1502c-1.5383,0.3935-2.8334,1.6027-3.5846,3.2484     c-0.2576,0.558-0.4508,1.1591-0.5725,1.803c-0.0357,0.1717-0.0643,0.3577-0.0787,0.5366     c-0.0071,0.0072-0.0071,0.0143-0.0071,0.0215c-0.0072,0.0501-0.0072,0.093-0.0143,0.1431     c-0.0287,0.2075-0.0358,0.4221-0.0358,0.6439c-0.0071,0.0573-0.0071,0.1217-0.0071,0.1789c0,3.7206,2.4255,6.7328,5.4234,6.7328     c2.5114,0,4.615-2.1035,5.2374-4.9655c0.0573-0.2075,0.0859-0.415,0.1145-0.6296c0.0143-0.0645,0.0215-0.136,0.0215-0.2076     c0.0286-0.1645,0.0357-0.3291,0.0429-0.5008c0.0143-0.093,0.0215-0.1932,0.0143-0.2862c0.0072-0.0501,0.0072-0.093,0.0072-0.1431     C31.89729,21.12485,31.83289,20.55245,31.71839,20.00865z M27.94059,21.42535h0.0071c0.0072,0.0143,0.0072,0.0358,0.0072,0.0501     c0.0286,0.1145,0.0358,0.2289,0.0358,0.3506c0,0.093-0.0072,0.1789-0.0286,0.2647c0.0142,0.0215,0,0.0358-0.0072,0.0501     c-0.0072,0.0644-0.0143,0.1288-0.0429,0.1932c0,0.0572-0.0144,0.1145-0.043,0.1646c-0.0286,0.0929-0.0644,0.1788-0.1073,0.2575     c-0.2719,0.4937-0.7441,0.8157-1.2807,0.8157c-0.0143,0-0.0143,0-0.0215,0c-0.7012-0.0071-1.28069-0.5653-1.4453-1.3165     c-0.0286-0.136-0.0501-0.2791-0.0501-0.4293c0-0.9373,0.644-1.7029,1.4525-1.7387c0.0143-0.0071,0.0286-0.0071,0.0429-0.0071     c0.0072,0,0.0072,0,0.0215,0c0.6153,0,1.1448,0.4293,1.3737,1.0374C27.89049,21.21785,27.91909,21.31805,27.94059,21.42535z      M31.71839,20.00865c-0.1359-0.6511-0.3506-1.2593-0.62959-1.8173c-0.2648-0.5438-0.5939-1.0303-0.9731-1.4597     c-0.3721-0.4149-0.7942-0.7727-1.245-1.0446c-0.4722-0.2933-0.9874-0.5008-1.524-0.6082     c-0.2862-0.0643-0.5867-0.0929-0.8872-0.0929c-0.3864,0-0.7656,0.05-1.1233,0.1502c-1.5383,0.3935-2.8334,1.6027-3.5846,3.2484     c-0.2576,0.558-0.4508,1.1591-0.5725,1.803c-0.0357,0.1717-0.0643,0.3577-0.0787,0.5366     c-0.0071,0.0072-0.0071,0.0143-0.0071,0.0215c-0.0072,0.0501-0.0072,0.093-0.0143,0.1431     c-0.0287,0.2075-0.0358,0.4221-0.0358,0.6439c-0.0071,0.0573-0.0071,0.1217-0.0071,0.1789c0,3.7206,2.4255,6.7328,5.4234,6.7328     c2.5114,0,4.615-2.1035,5.2374-4.9655c0.0573-0.2075,0.0859-0.415,0.1145-0.6296c0.0143-0.0645,0.0215-0.136,0.0215-0.2076     c0.0286-0.1645,0.0357-0.3291,0.0429-0.5008c0.0143-0.093,0.0215-0.1932,0.0143-0.2862c0.0072-0.0501,0.0072-0.093,0.0072-0.1431     C31.89729,21.12485,31.83289,20.55245,31.71839,20.00865z M27.94059,21.42535h0.0071c0.0072,0.0143,0.0072,0.0358,0.0072,0.0501     c0.0286,0.1145,0.0358,0.2289,0.0358,0.3506c0,0.093-0.0072,0.1789-0.0286,0.2647c0.0142,0.0215,0,0.0358-0.0072,0.0501     c-0.0072,0.0644-0.0143,0.1288-0.0429,0.1932c0,0.0572-0.0144,0.1145-0.043,0.1646c-0.0286,0.0929-0.0644,0.1788-0.1073,0.2575     c-0.2719,0.4937-0.7441,0.8157-1.2807,0.8157c-0.0143,0-0.0143,0-0.0215,0c-0.7012-0.0071-1.28069-0.5653-1.4453-1.3165     c-0.0286-0.136-0.0501-0.2791-0.0501-0.4293c0-0.9373,0.644-1.7029,1.4525-1.7387c0.0143-0.0071,0.0286-0.0071,0.0429-0.0071     c0.0072,0,0.0072,0,0.0215,0c0.6153,0,1.1448,0.4293,1.3737,1.0374C27.89049,21.21785,27.91909,21.31805,27.94059,21.42535z      M31.71839,20.00865c-0.1359-0.6511-0.3506-1.2593-0.62959-1.8173c-0.2648-0.5438-0.5939-1.0303-0.9731-1.4597     c-0.3721-0.4149-0.7942-0.7727-1.245-1.0446c-0.4722-0.2933-0.9874-0.5008-1.524-0.6082     c-0.2862-0.0643-0.5867-0.0929-0.8872-0.0929c-0.3864,0-0.7656,0.05-1.1233,0.1502c-1.5383,0.3935-2.8334,1.6027-3.5846,3.2484     c-0.2576,0.558-0.4508,1.1591-0.5725,1.803c-0.0357,0.1717-0.0643,0.3577-0.0787,0.5366     c-0.0071,0.0072-0.0071,0.0143-0.0071,0.0215c-0.0072,0.0501-0.0072,0.093-0.0143,0.1431     c-0.0287,0.2075-0.0358,0.4221-0.0358,0.6439c-0.0071,0.0573-0.0071,0.1217-0.0071,0.1789c0,3.7206,2.4255,6.7328,5.4234,6.7328     c2.5114,0,4.615-2.1035,5.2374-4.9655c0.0573-0.2075,0.0859-0.415,0.1145-0.6296c0.0143-0.0645,0.0215-0.136,0.0215-0.2076     c0.0286-0.1645,0.0357-0.3291,0.0429-0.5008c0.0143-0.093,0.0215-0.1932,0.0143-0.2862c0.0072-0.0501,0.0072-0.093,0.0072-0.1431     C31.89729,21.12485,31.83289,20.55245,31.71839,20.00865z M27.94059,21.42535h0.0071c0.0072,0.0143,0.0072,0.0358,0.0072,0.0501     c0.0286,0.1145,0.0358,0.2289,0.0358,0.3506c0,0.093-0.0072,0.1789-0.0286,0.2647c0.0142,0.0215,0,0.0358-0.0072,0.0501     c-0.0072,0.0644-0.0143,0.1288-0.0429,0.1932c0,0.0572-0.0144,0.1145-0.043,0.1646c-0.0286,0.0929-0.0644,0.1788-0.1073,0.2575     c-0.2719,0.4937-0.7441,0.8157-1.2807,0.8157c-0.0143,0-0.0143,0-0.0215,0c-0.7012-0.0071-1.28069-0.5653-1.4453-1.3165     c-0.0286-0.136-0.0501-0.2791-0.0501-0.4293c0-0.9373,0.644-1.7029,1.4525-1.7387c0.0143-0.0071,0.0286-0.0071,0.0429-0.0071     c0.0072,0,0.0072,0,0.0215,0c0.6153,0,1.1448,0.4293,1.3737,1.0374C27.89049,21.21785,27.91909,21.31805,27.94059,21.42535z      M31.71839,20.00865c-0.1359-0.6511-0.3506-1.2593-0.62959-1.8173c-0.2648-0.5438-0.5939-1.0303-0.9731-1.4597     c-0.3721-0.4149-0.7942-0.7727-1.245-1.0446c-0.4722-0.2933-0.9874-0.5008-1.524-0.6082     c-0.2862-0.0643-0.5867-0.0929-0.8872-0.0929c-0.3864,0-0.7656,0.05-1.1233,0.1502c-1.5383,0.3935-2.8334,1.6027-3.5846,3.2484     c-0.2576,0.558-0.4508,1.1591-0.5725,1.803c-0.0357,0.1717-0.0643,0.3577-0.0787,0.5366     c-0.0071,0.0072-0.0071,0.0143-0.0071,0.0215c-0.0072,0.0501-0.0072,0.093-0.0143,0.1431     c-0.0287,0.2075-0.0358,0.4221-0.0358,0.6439c-0.0071,0.0573-0.0071,0.1217-0.0071,0.1789c0,3.7206,2.4255,6.7328,5.4234,6.7328     c2.5114,0,4.615-2.1035,5.2374-4.9655c0.0573-0.2075,0.0859-0.415,0.1145-0.6296c0.0143-0.0645,0.0215-0.136,0.0215-0.2076     c0.0286-0.1645,0.0357-0.3291,0.0429-0.5008c0.0143-0.093,0.0215-0.1932,0.0143-0.2862c0.0072-0.0501,0.0072-0.093,0.0072-0.1431     C31.89729,21.12485,31.83289,20.55245,31.71839,20.00865z M27.94059,21.42535h0.0071c0.0072,0.0143,0.0072,0.0358,0.0072,0.0501     c0.0286,0.1145,0.0358,0.2289,0.0358,0.3506c0,0.093-0.0072,0.1789-0.0286,0.2647c0.0142,0.0215,0,0.0358-0.0072,0.0501     c-0.0072,0.0644-0.0143,0.1288-0.0429,0.1932c0,0.0572-0.0144,0.1145-0.043,0.1646c-0.0286,0.0929-0.0644,0.1788-0.1073,0.2575     c-0.2719,0.4937-0.7441,0.8157-1.2807,0.8157c-0.0143,0-0.0143,0-0.0215,0c-0.7012-0.0071-1.28069-0.5653-1.4453-1.3165     c-0.0286-0.136-0.0501-0.2791-0.0501-0.4293c0-0.9373,0.644-1.7029,1.4525-1.7387c0.0143-0.0071,0.0286-0.0071,0.0429-0.0071     c0.0072,0,0.0072,0,0.0215,0c0.6153,0,1.1448,0.4293,1.3737,1.0374C27.89049,21.21785,27.91909,21.31805,27.94059,21.42535z      M31.71839,20.00865c-0.1359-0.6511-0.3506-1.2593-0.62959-1.8173c-0.2648-0.5438-0.5939-1.0303-0.9731-1.4597     c-0.3721-0.4149-0.7942-0.7727-1.245-1.0446c-0.4722-0.2933-0.9874-0.5008-1.524-0.6082     c-0.2862-0.0643-0.5867-0.0929-0.8872-0.0929c-0.3864,0-0.7656,0.05-1.1233,0.1502c-1.5383,0.3935-2.8334,1.6027-3.5846,3.2484     c-0.2576,0.558-0.4508,1.1591-0.5725,1.803c-0.0357,0.1717-0.0643,0.3577-0.0787,0.5366     c-0.0071,0.0072-0.0071,0.0143-0.0071,0.0215c-0.0072,0.0501-0.0072,0.093-0.0143,0.1431     c-0.0287,0.2075-0.0358,0.4221-0.0358,0.6439c-0.0071,0.0573-0.0071,0.1217-0.0071,0.1789c0,3.7206,2.4255,6.7328,5.4234,6.7328     c2.5114,0,4.615-2.1035,5.2374-4.9655c0.0573-0.2075,0.0859-0.415,0.1145-0.6296c0.0143-0.0645,0.0215-0.136,0.0215-0.2076     c0.0286-0.1645,0.0357-0.3291,0.0429-0.5008c0.0143-0.093,0.0215-0.1932,0.0143-0.2862c0.0072-0.0501,0.0072-0.093,0.0072-0.1431     C31.89729,21.12485,31.83289,20.55245,31.71839,20.00865z M27.94059,21.42535h0.0071c0.0072,0.0143,0.0072,0.0358,0.0072,0.0501     c0.0286,0.1145,0.0358,0.2289,0.0358,0.3506c0,0.093-0.0072,0.1789-0.0286,0.2647c0.0142,0.0215,0,0.0358-0.0072,0.0501     c-0.0072,0.0644-0.0143,0.1288-0.0429,0.1932c0,0.0572-0.0144,0.1145-0.043,0.1646c-0.0286,0.0929-0.0644,0.1788-0.1073,0.2575     c-0.2719,0.4937-0.7441,0.8157-1.2807,0.8157c-0.0143,0-0.0143,0-0.0215,0c-0.7012-0.0071-1.28069-0.5653-1.4453-1.3165     c-0.0286-0.136-0.0501-0.2791-0.0501-0.4293c0-0.9373,0.644-1.7029,1.4525-1.7387c0.0143-0.0071,0.0286-0.0071,0.0429-0.0071     c0.0072,0,0.0072,0,0.0215,0c0.6153,0,1.1448,0.4293,1.3737,1.0374C27.89049,21.21785,27.91909,21.31805,27.94059,21.42535z      M31.71839,20.00865c-0.1359-0.6511-0.3506-1.2593-0.62959-1.8173c-0.2648-0.5438-0.5939-1.0303-0.9731-1.4597     c-0.3721-0.4149-0.7942-0.7727-1.245-1.0446c-0.4722-0.2933-0.9874-0.5008-1.524-0.6082     c-0.2862-0.0643-0.5867-0.0929-0.8872-0.0929c-0.3864,0-0.7656,0.05-1.1233,0.1502c-1.5383,0.3935-2.8334,1.6027-3.5846,3.2484     c-0.2576,0.558-0.4508,1.1591-0.5725,1.803c-0.0357,0.1717-0.0643,0.3577-0.0787,0.5366     c-0.0071,0.0072-0.0071,0.0143-0.0071,0.0215c-0.0072,0.0501-0.0072,0.093-0.0143,0.1431     c-0.0287,0.2075-0.0358,0.4221-0.0358,0.6439c-0.0071,0.0573-0.0071,0.1217-0.0071,0.1789c0,3.7206,2.4255,6.7328,5.4234,6.7328     c2.5114,0,4.615-2.1035,5.2374-4.9655c0.0573-0.2075,0.0859-0.415,0.1145-0.6296c0.0143-0.0645,0.0215-0.136,0.0215-0.2076     c0.0286-0.1645,0.0357-0.3291,0.0429-0.5008c0.0143-0.093,0.0215-0.1932,0.0143-0.2862c0.0072-0.0501,0.0072-0.093,0.0072-0.1431     C31.89729,21.12485,31.83289,20.55245,31.71839,20.00865z M27.94059,21.42535h0.0071c0.0072,0.0143,0.0072,0.0358,0.0072,0.0501     c0.0286,0.1145,0.0358,0.2289,0.0358,0.3506c0,0.093-0.0072,0.1789-0.0286,0.2647c0.0142,0.0215,0,0.0358-0.0072,0.0501     c-0.0072,0.0644-0.0143,0.1288-0.0429,0.1932c0,0.0572-0.0144,0.1145-0.043,0.1646c-0.0286,0.0929-0.0644,0.1788-0.1073,0.2575     c-0.2719,0.4937-0.7441,0.8157-1.2807,0.8157c-0.0143,0-0.0143,0-0.0215,0c-0.7012-0.0071-1.28069-0.5653-1.4453-1.3165     c-0.0286-0.136-0.0501-0.2791-0.0501-0.4293c0-0.9373,0.644-1.7029,1.4525-1.7387c0.0143-0.0071,0.0286-0.0071,0.0429-0.0071     c0.0072,0,0.0072,0,0.0215,0c0.6153,0,1.1448,0.4293,1.3737,1.0374C27.89049,21.21785,27.91909,21.31805,27.94059,21.42535z      M31.71839,20.00865c-0.1359-0.6511-0.3506-1.2593-0.62959-1.8173c-0.2648-0.5438-0.5939-1.0303-0.9731-1.4597     c-0.3721-0.4149-0.7942-0.7727-1.245-1.0446c-0.4722-0.2933-0.9874-0.5008-1.524-0.6082     c-0.2862-0.0643-0.5867-0.0929-0.8872-0.0929c-0.3864,0-0.7656,0.05-1.1233,0.1502c-1.5383,0.3935-2.8334,1.6027-3.5846,3.2484     c-0.2576,0.558-0.4508,1.1591-0.5725,1.803c-0.0357,0.1717-0.0643,0.3577-0.0787,0.5366     c-0.0071,0.0072-0.0071,0.0143-0.0071,0.0215c-0.0072,0.0501-0.0072,0.093-0.0143,0.1431     c-0.0287,0.2075-0.0358,0.4221-0.0358,0.6439c-0.0071,0.0573-0.0071,0.1217-0.0071,0.1789c0,3.7206,2.4255,6.7328,5.4234,6.7328     c2.5114,0,4.615-2.1035,5.2374-4.9655c0.0573-0.2075,0.0859-0.415,0.1145-0.6296c0.0143-0.0645,0.0215-0.136,0.0215-0.2076     c0.0286-0.1645,0.0357-0.3291,0.0429-0.5008c0.0143-0.093,0.0215-0.1932,0.0143-0.2862c0.0072-0.0501,0.0072-0.093,0.0072-0.1431     C31.89729,21.12485,31.83289,20.55245,31.71839,20.00865z M27.94059,21.42535h0.0071c0.0072,0.0143,0.0072,0.0358,0.0072,0.0501     c0.0286,0.1145,0.0358,0.2289,0.0358,0.3506c0,0.093-0.0072,0.1789-0.0286,0.2647c0.0142,0.0215,0,0.0358-0.0072,0.0501     c-0.0072,0.0644-0.0143,0.1288-0.0429,0.1932c0,0.0572-0.0144,0.1145-0.043,0.1646c-0.0286,0.0929-0.0644,0.1788-0.1073,0.2575     c-0.2719,0.4937-0.7441,0.8157-1.2807,0.8157c-0.0143,0-0.0143,0-0.0215,0c-0.7012-0.0071-1.28069-0.5653-1.4453-1.3165     c-0.0286-0.136-0.0501-0.2791-0.0501-0.4293c0-0.9373,0.644-1.7029,1.4525-1.7387c0.0143-0.0071,0.0286-0.0071,0.0429-0.0071     c0.0072,0,0.0072,0,0.0215,0c0.6153,0,1.1448,0.4293,1.3737,1.0374C27.89049,21.21785,27.91909,21.31805,27.94059,21.42535z      M31.71839,20.00865c-0.1359-0.6511-0.3506-1.2593-0.62959-1.8173c-0.2648-0.5438-0.5939-1.0303-0.9731-1.4597     c-0.3721-0.4149-0.7942-0.7727-1.245-1.0446c-0.4722-0.2933-0.9874-0.5008-1.524-0.6082     c-0.2862-0.0643-0.5867-0.0929-0.8872-0.0929c-0.3864,0-0.7656,0.05-1.1233,0.1502c-1.5383,0.3935-2.8334,1.6027-3.5846,3.2484     c-0.2576,0.558-0.4508,1.1591-0.5725,1.803c-0.0357,0.1717-0.0643,0.3577-0.0787,0.5366     c-0.0071,0.0072-0.0071,0.0143-0.0071,0.0215c-0.0072,0.0501-0.0072,0.093-0.0143,0.1431     c-0.0287,0.2075-0.0358,0.4221-0.0358,0.6439c-0.0071,0.0573-0.0071,0.1217-0.0071,0.1789c0,3.7206,2.4255,6.7328,5.4234,6.7328     c2.5114,0,4.615-2.1035,5.2374-4.9655c0.0573-0.2075,0.0859-0.415,0.1145-0.6296c0.0143-0.0645,0.0215-0.136,0.0215-0.2076     c0.0286-0.1645,0.0357-0.3291,0.0429-0.5008c0.0143-0.093,0.0215-0.1932,0.0143-0.2862c0.0072-0.0501,0.0072-0.093,0.0072-0.1431     C31.89729,21.12485,31.83289,20.55245,31.71839,20.00865z M27.94059,21.42535h0.0071c0.0072,0.0143,0.0072,0.0358,0.0072,0.0501     c0.0286,0.1145,0.0358,0.2289,0.0358,0.3506c0,0.093-0.0072,0.1789-0.0286,0.2647c0.0142,0.0215,0,0.0358-0.0072,0.0501     c-0.0072,0.0644-0.0143,0.1288-0.0429,0.1932c0,0.0572-0.0144,0.1145-0.043,0.1646c-0.0286,0.0929-0.0644,0.1788-0.1073,0.2575     c-0.2719,0.4937-0.7441,0.8157-1.2807,0.8157c-0.0143,0-0.0143,0-0.0215,0c-0.7012-0.0071-1.28069-0.5653-1.4453-1.3165     c-0.0286-0.136-0.0501-0.2791-0.0501-0.4293c0-0.9373,0.644-1.7029,1.4525-1.7387c0.0143-0.0071,0.0286-0.0071,0.0429-0.0071     c0.0072,0,0.0072,0,0.0215,0c0.6153,0,1.1448,0.4293,1.3737,1.0374C27.89049,21.21785,27.91909,21.31805,27.94059,21.42535z      M31.71839,20.00865c-0.1359-0.6511-0.3506-1.2593-0.62959-1.8173c-0.2648-0.5438-0.5939-1.0303-0.9731-1.4597     c-0.3721-0.4149-0.7942-0.7727-1.245-1.0446c-0.4722-0.2933-0.9874-0.5008-1.524-0.6082     c-0.2862-0.0643-0.5867-0.0929-0.8872-0.0929c-0.3864,0-0.7656,0.05-1.1233,0.1502c-1.5383,0.3935-2.8334,1.6027-3.5846,3.2484     c-0.2576,0.558-0.4508,1.1591-0.5725,1.803c-0.0357,0.1717-0.0643,0.3577-0.0787,0.5366     c-0.0071,0.0072-0.0071,0.0143-0.0071,0.0215c-0.0072,0.0501-0.0072,0.093-0.0143,0.1431     c-0.0287,0.2075-0.0358,0.4221-0.0358,0.6439c-0.0071,0.0573-0.0071,0.1217-0.0071,0.1789c0,3.7206,2.4255,6.7328,5.4234,6.7328     c2.5114,0,4.615-2.1035,5.2374-4.9655c0.0573-0.2075,0.0859-0.415,0.1145-0.6296c0.0143-0.0645,0.0215-0.136,0.0215-0.2076     c0.0286-0.1645,0.0357-0.3291,0.0429-0.5008c0.0143-0.093,0.0215-0.1932,0.0143-0.2862c0.0072-0.0501,0.0072-0.093,0.0072-0.1431     C31.89729,21.12485,31.83289,20.55245,31.71839,20.00865z M27.94059,21.42535h0.0071c0.0072,0.0143,0.0072,0.0358,0.0072,0.0501     c0.0286,0.1145,0.0358,0.2289,0.0358,0.3506c0,0.093-0.0072,0.1789-0.0286,0.2647c0.0142,0.0215,0,0.0358-0.0072,0.0501     c-0.0072,0.0644-0.0143,0.1288-0.0429,0.1932c0,0.0572-0.0144,0.1145-0.043,0.1646c-0.0286,0.0929-0.0644,0.1788-0.1073,0.2575     c-0.2719,0.4937-0.7441,0.8157-1.2807,0.8157c-0.0143,0-0.0143,0-0.0215,0c-0.7012-0.0071-1.28069-0.5653-1.4453-1.3165     c-0.0286-0.136-0.0501-0.2791-0.0501-0.4293c0-0.9373,0.644-1.7029,1.4525-1.7387c0.0143-0.0071,0.0286-0.0071,0.0429-0.0071     c0.0072,0,0.0072,0,0.0215,0c0.6153,0,1.1448,0.4293,1.3737,1.0374C27.89049,21.21785,27.91909,21.31805,27.94059,21.42535z      M31.71839,20.00865c-0.1359-0.6511-0.3506-1.2593-0.62959-1.8173c-0.2648-0.5438-0.5939-1.0303-0.9731-1.4597     c-0.3721-0.4149-0.7942-0.7727-1.245-1.0446c-0.4722-0.2933-0.9874-0.5008-1.524-0.6082     c-0.2862-0.0643-0.5867-0.0929-0.8872-0.0929c-0.3864,0-0.7656,0.05-1.1233,0.1502c-1.5383,0.3935-2.8334,1.6027-3.5846,3.2484     c-0.2576,0.558-0.4508,1.1591-0.5725,1.803c-0.0357,0.1717-0.0643,0.3577-0.0787,0.5366     c-0.0071,0.0072-0.0071,0.0143-0.0071,0.0215c-0.0072,0.0501-0.0072,0.093-0.0143,0.1431     c-0.0287,0.2075-0.0358,0.4221-0.0358,0.6439c-0.0071,0.0573-0.0071,0.1217-0.0071,0.1789c0,3.7206,2.4255,6.7328,5.4234,6.7328     c2.5114,0,4.615-2.1035,5.2374-4.9655c0.0573-0.2075,0.0859-0.415,0.1145-0.6296c0.0143-0.0645,0.0215-0.136,0.0215-0.2076     c0.0286-0.1645,0.0357-0.3291,0.0429-0.5008c0.0143-0.093,0.0215-0.1932,0.0143-0.2862c0.0072-0.0501,0.0072-0.093,0.0072-0.1431     C31.89729,21.12485,31.83289,20.55245,31.71839,20.00865z M27.94059,21.42535h0.0071c0.0072,0.0143,0.0072,0.0358,0.0072,0.0501     c0.0286,0.1145,0.0358,0.2289,0.0358,0.3506c0,0.093-0.0072,0.1789-0.0286,0.2647c0.0142,0.0215,0,0.0358-0.0072,0.0501     c-0.0072,0.0644-0.0143,0.1288-0.0429,0.1932c0,0.0572-0.0144,0.1145-0.043,0.1646c-0.0286,0.0929-0.0644,0.1788-0.1073,0.2575     c-0.2719,0.4937-0.7441,0.8157-1.2807,0.8157c-0.0143,0-0.0143,0-0.0215,0c-0.7012-0.0071-1.28069-0.5653-1.4453-1.3165     c-0.0286-0.136-0.0501-0.2791-0.0501-0.4293c0-0.9373,0.644-1.7029,1.4525-1.7387c0.0143-0.0071,0.0286-0.0071,0.0429-0.0071     c0.0072,0,0.0072,0,0.0215,0c0.6153,0,1.1448,0.4293,1.3737,1.0374C27.89049,21.21785,27.91909,21.31805,27.94059,21.42535z      M31.71839,20.00865c-0.1359-0.6511-0.3506-1.2593-0.62959-1.8173c-0.2648-0.5438-0.5939-1.0303-0.9731-1.4597     c-0.3721-0.4149-0.7942-0.7727-1.245-1.0446c-0.4722-0.2933-0.9874-0.5008-1.524-0.6082     c-0.2862-0.0643-0.5867-0.0929-0.8872-0.0929c-0.3864,0-0.7656,0.05-1.1233,0.1502c-1.5383,0.3935-2.8334,1.6027-3.5846,3.2484     c-0.2576,0.558-0.4508,1.1591-0.5725,1.803c-0.0357,0.1717-0.0643,0.3577-0.0787,0.5366     c-0.0071,0.0072-0.0071,0.0143-0.0071,0.0215c-0.0072,0.0501-0.0072,0.093-0.0143,0.1431     c-0.0287,0.2075-0.0358,0.4221-0.0358,0.6439c-0.0071,0.0573-0.0071,0.1217-0.0071,0.1789c0,3.7206,2.4255,6.7328,5.4234,6.7328     c2.5114,0,4.615-2.1035,5.2374-4.9655c0.0573-0.2075,0.0859-0.415,0.1145-0.6296c0.0143-0.0645,0.0215-0.136,0.0215-0.2076     c0.0286-0.1645,0.0357-0.3291,0.0429-0.5008c0.0143-0.093,0.0215-0.1932,0.0143-0.2862c0.0072-0.0501,0.0072-0.093,0.0072-0.1431     C31.89729,21.12485,31.83289,20.55245,31.71839,20.00865z M27.94059,21.42535h0.0071c0.0072,0.0143,0.0072,0.0358,0.0072,0.0501     c0.0286,0.1145,0.0358,0.2289,0.0358,0.3506c0,0.093-0.0072,0.1789-0.0286,0.2647c0.0142,0.0215,0,0.0358-0.0072,0.0501     c-0.0072,0.0644-0.0143,0.1288-0.0429,0.1932c0,0.0572-0.0144,0.1145-0.043,0.1646c-0.0286,0.0929-0.0644,0.1788-0.1073,0.2575     c-0.2719,0.4937-0.7441,0.8157-1.2807,0.8157c-0.0143,0-0.0143,0-0.0215,0c-0.7012-0.0071-1.28069-0.5653-1.4453-1.3165     c-0.0286-0.136-0.0501-0.2791-0.0501-0.4293c0-0.9373,0.644-1.7029,1.4525-1.7387c0.0143-0.0071,0.0286-0.0071,0.0429-0.0071     c0.0072,0,0.0072,0,0.0215,0c0.6153,0,1.1448,0.4293,1.3737,1.0374C27.89049,21.21785,27.91909,21.31805,27.94059,21.42535z" style="fill:none;stroke:#303030;stroke-width:0.5;stroke-linecap:round;stroke-linejoin:round;stroke-miterlimit:10;"/><path d="     M31.71839,20.00865c-0.1359-0.6511-0.3506-1.2593-0.62959-1.8173c-0.2648-0.5438-0.5939-1.0303-0.9731-1.4597     c-0.3721-0.4149-0.7942-0.7727-1.245-1.0446c-0.4722-0.2933-0.9874-0.5008-1.524-0.6082     c-0.2862-0.0643-0.5867-0.0929-0.8872-0.0929c-0.3864,0-0.7656,0.05-1.1233,0.1502c-1.5383,0.3935-2.8334,1.6027-3.5846,3.2484     c-0.2576,0.558-0.4508,1.1591-0.5725,1.803c-0.0357,0.1717-0.0643,0.3577-0.0787,0.5366     c-0.0071,0.0072-0.0071,0.0143-0.0071,0.0215c-0.0072,0.0501-0.0072,0.093-0.0143,0.1431     c-0.0287,0.2075-0.0358,0.4221-0.0358,0.6439c-0.0071,0.0573-0.0071,0.1217-0.0071,0.1789c0,3.7206,2.4255,6.7328,5.4234,6.7328     c2.5114,0,4.615-2.1035,5.2374-4.9655c0.0573-0.2075,0.0859-0.415,0.1145-0.6296c0.0143-0.0645,0.0215-0.136,0.0215-0.2076     c0.0286-0.1645,0.0357-0.3291,0.0429-0.5008c0.0143-0.093,0.0215-0.1932,0.0143-0.2862c0.0072-0.0501,0.0072-0.093,0.0072-0.1431     C31.89729,21.12485,31.83289,20.55245,31.71839,20.00865z M27.94059,21.42535h0.0071c0.0072,0.0143,0.0072,0.0358,0.0072,0.0501     c0.0286,0.1145,0.0358,0.2289,0.0358,0.3506c0,0.093-0.0072,0.1789-0.0286,0.2647c0.0142,0.0215,0,0.0358-0.0072,0.0501     c-0.0072,0.0644-0.0143,0.1288-0.0429,0.1932c0,0.0572-0.0144,0.1145-0.043,0.1646c-0.0286,0.0929-0.0644,0.1788-0.1073,0.2575     c-0.2719,0.4937-0.7441,0.8157-1.2807,0.8157c-0.0143,0-0.0143,0-0.0215,0c-0.7012-0.0071-1.28069-0.5653-1.4453-1.3165     c-0.0286-0.136-0.0501-0.2791-0.0501-0.4293c0-0.9373,0.644-1.7029,1.4525-1.7387c0.0143-0.0071,0.0286-0.0071,0.0429-0.0071     c0.0072,0,0.0072,0,0.0215,0c0.6153,0,1.1448,0.4293,1.3737,1.0374C27.89049,21.21785,27.91909,21.31805,27.94059,21.42535z" style="fill:none;stroke:#303030;stroke-width:0.5;stroke-linecap:round;stroke-linejoin:round;stroke-miterlimit:10;"/><path d="     M31.71839,20.00865c-0.1359-0.6511-0.3506-1.2593-0.62959-1.8173c-0.2648-0.5438-0.5939-1.0303-0.9731-1.4597     c-0.3721-0.4149-0.7942-0.7727-1.245-1.0446c-0.4722-0.2933-0.9874-0.5008-1.524-0.6082     c-0.2862-0.0643-0.5867-0.0929-0.8872-0.0929c-0.3864,0-0.7656,0.05-1.1233,0.1502c-1.5383,0.3935-2.8334,1.6027-3.5846,3.2484     c-0.2576,0.558-0.4508,1.1591-0.5725,1.803c-0.0357,0.1717-0.0643,0.3577-0.0787,0.5366     c-0.0071,0.0072-0.0071,0.0143-0.0071,0.0215c-0.0072,0.0501-0.0072,0.093-0.0143,0.1431     c-0.0287,0.2075-0.0358,0.4221-0.0358,0.6439c-0.0071,0.0573-0.0071,0.1217-0.0071,0.1789c0,3.7206,2.4255,6.7328,5.4234,6.7328     c2.5114,0,4.615-2.1035,5.2374-4.9655c0.0573-0.2075,0.0859-0.415,0.1145-0.6296c0.0143-0.0645,0.0215-0.136,0.0215-0.2076     c0.0286-0.1645,0.0357-0.3291,0.0429-0.5008c0.0143-0.093,0.0215-0.1932,0.0143-0.2862c0.0072-0.0501,0.0072-0.093,0.0072-0.1431     C31.89729,21.12485,31.83289,20.55245,31.71839,20.00865z M27.94059,21.42535h0.0071c0.0072,0.0143,0.0072,0.0358,0.0072,0.0501     c0.0286,0.1145,0.0358,0.2289,0.0358,0.3506c0,0.093-0.0072,0.1789-0.0286,0.2647c0.0142,0.0215,0,0.0358-0.0072,0.0501     c-0.0072,0.0644-0.0143,0.1288-0.0429,0.1932c0,0.0572-0.0144,0.1145-0.043,0.1646c-0.0286,0.0929-0.0644,0.1788-0.1073,0.2575     c-0.2719,0.4937-0.7441,0.8157-1.2807,0.8157c-0.0143,0-0.0143,0-0.0215,0c-0.7012-0.0071-1.28069-0.5653-1.4453-1.3165     c-0.0286-0.136-0.0501-0.2791-0.0501-0.4293c0-0.9373,0.644-1.7029,1.4525-1.7387c0.0143-0.0071,0.0286-0.0071,0.0429-0.0071     c0.0072,0,0.0072,0,0.0215,0c0.6153,0,1.1448,0.4293,1.3737,1.0374C27.89049,21.21785,27.91909,21.31805,27.94059,21.42535z" style="fill:none;stroke:#303030;stroke-width:0.5;stroke-linecap:round;stroke-linejoin:round;stroke-miterlimit:10;"/><path d="     M27.95489,22.14085c-0.0072,0.0644-0.0143,0.1288-0.0429,0.1932c0,0.0572-0.0144,0.1145-0.043,0.1646     c-0.0286,0.0929-0.0644,0.1788-0.1073,0.2575c-0.2719,0.4937-0.7441,0.8157-1.2807,0.8157c-0.0143,0-0.0143,0-0.0215,0     c-0.7012-0.0071-1.28069-0.5653-1.4453-1.3165c-0.0286-0.136-0.0501-0.2791-0.0501-0.4293c0-0.9373,0.644-1.7029,1.4525-1.7387     c0.0143-0.0071,0.0286-0.0071,0.0429-0.0071c0.0072,0,0.0072,0,0.0215,0c0.6153,0,1.1448,0.4293,1.3737,1.0374     c0.0358,0.1002,0.0644,0.2004,0.0859,0.3077h0.0071c0.0072,0.0143,0.0072,0.0358,0.0072,0.0501     c0.0286,0.1145,0.0358,0.2289,0.0358,0.3506c0,0.093-0.0072,0.1789-0.0286,0.2647     C27.97629,22.11225,27.96209,22.12655,27.95489,22.14085z M28.72759,21.71155c-0.0071-0.0501,0-0.093-0.0071-0.1431     c-0.0215-0.3649-0.1074-0.7012-0.2433-1.0088c-0.2576-0.5653-0.7012-1.0089-1.2378-1.2235     c-0.2361-0.1002-0.4937-0.1503-0.7584-0.1503c-0.0144,0-0.0144,0-0.0215,0c-0.9301,0.0072-1.7315,0.6583-2.0606,1.5884     c-0.0573,0.1646-0.1002,0.3434-0.1288,0.5295 M24.26289,22.08365c0,0.0143,0,0.0214,0,0.0357     c0.1789,1.1949,1.0947,2.1108,2.1966,2.1179c0.0071,0,0.0071,0,0.0215,0c0.8013,0,1.5097-0.4794,1.9032-1.202v-0.0072     l0.0071-0.0071c0.0287-0.043,0.1288-0.2862,0.1503-0.3292" style="fill:none;stroke:#303030;stroke-width:0.5;stroke-linecap:round;stroke-linejoin:round;stroke-miterlimit:10;"/><line style="fill:none;stroke:#303030;stroke-width:0.5;stroke-linecap:round;stroke-linejoin:round;stroke-miterlimit:10;" x1="24.27059" x2="21.09739" y1="21.30365" y2="20.72535"/><line style="fill:none;stroke:#303030;stroke-width:0.5;stroke-linecap:round;stroke-linejoin:round;stroke-miterlimit:10;" x1="27.94829" x2="27.93979" y1="21.42535" y2="21.42535"/><line style="fill:none;stroke:#303030;stroke-width:0.5;stroke-linecap:round;stroke-linejoin:round;stroke-miterlimit:10;" x1="24.26369" x2="21.14659" y1="22.08275" y2="21.51475"/><polyline points="     27.34669,15.07895 21.11469,20.72415 21.09329,20.74565 21.09329,20.75275    " style="fill:none;stroke:#303030;stroke-width:0.5;stroke-linecap:round;stroke-linejoin:round;stroke-miterlimit:10;"/><line style="fill:none;stroke:#303030;stroke-width:0.5;stroke-linecap:round;stroke-linejoin:round;stroke-miterlimit:10;" x1="28.87069" x2="22.95359" y1="15.68705" y2="21.06045"/><line style="fill:none;stroke:#303030;stroke-width:0.5;stroke-linecap:round;stroke-linejoin:round;stroke-miterlimit:10;" x1="26.41659" x2="26.40939" y1="20.08735" y2="20.08735"/><line style="fill:none;stroke:#303030;stroke-width:0.5;stroke-linecap:round;stroke-linejoin:round;stroke-miterlimit:10;" x1="30.11569" x2="27.23939" y1="16.73175" y2="19.33615"/><line style="fill:none;stroke:#303030;stroke-width:0.5;stroke-linecap:round;stroke-linejoin:round;stroke-miterlimit:10;" x1="31.08879" x2="28.47719" y1="18.19135" y2="20.55965"/><line style="fill:none;stroke:#303030;stroke-width:0.5;stroke-linecap:round;stroke-linejoin:round;stroke-miterlimit:10;" x1="31.71839" x2="29.59519" y1="20.00865" y2="21.93595"/><polyline points="     28.38419,23.03525 28.38419,23.02805 28.39129,23.02095    " style="fill:none;stroke:#303030;stroke-width:0.5;stroke-linecap:round;stroke-linejoin:round;stroke-miterlimit:10;"/><line style="fill:none;stroke:#303030;stroke-width:0.5;stroke-linecap:round;stroke-linejoin:round;stroke-miterlimit:10;" x1="31.89009" x2="31.43469" y1="21.85465" y2="22.26585"/><line style="fill:none;stroke:#303030;stroke-width:0.5;stroke-linecap:round;stroke-linejoin:round;stroke-miterlimit:10;" x1="25.33619" x2="21.75149" y1="15.13615" y2="18.38455"/><polygon points="     34.4742,35.44835 18.32289,32.50075 18.31629,9.59655 34.46759,12.54415    " style="fill:none;stroke:#303030;stroke-width:0.5;stroke-linecap:round;stroke-linejoin:round;stroke-miterlimit:10;"/><polyline points="     18.31629,9.59655 13.52499,12.91865 13.52499,35.76225 18.32289,32.50075    " style="fill:none;stroke:#303030;stroke-width:0.5;stroke-linecap:round;stroke-linejoin:round;stroke-miterlimit:10;"/><polyline points="     34.4742,35.44835 29.37179,38.40345 13.52499,35.76225    " style="fill:none;stroke:#303030;stroke-width:0.5;stroke-linecap:round;stroke-linejoin:round;stroke-miterlimit:10;"/></g></g></g></svg>